<?xml version="1.0" encoding="UTF-8" standalone="no"?>
<!DOCTYPE svg PUBLIC "-//W3C//DTD SVG 1.1//EN"
    "http://www.w3.org/Graphics/SVG/1.1/DTD/svg11.dtd">
<!-- Generated by graphviz version 2.50.0 (20211204.2007)
 -->
<!-- Pages: 1 -->
<svg width="342pt" height="392pt"
     viewBox="0.00 0.00 342.00 392.00" xmlns="http://www.w3.org/2000/svg">
    <g id="graph0" class="graph" transform="scale(1 1) rotate(0) translate(4 388)">
        <polygon fill="white" stroke="transparent" points="-4,4 -4,-388 338,-388 338,4 -4,4"/>
        <text text-anchor="middle" x="167" y="-356" font-family="Times,serif" font-size="30.00">dependency&#45;graph&#45;sample</text>
        <text text-anchor="middle" x="167" y="-323" font-family="Times,serif" font-size="30.00"></text>
        <!-- :project&#45;one -->
        <g id="node1" class="node">
            <title>:project&#45;one</title>
            <ellipse fill="#fcb96a" stroke="black" cx="146.18" cy="-18" rx="53.09" ry="18"/>
            <text text-anchor="middle" x="146.18" y="-14.3" font-family="Times,serif" font-size="14.00">
                :project&#45;one
            </text>
        </g>
        <!-- :project&#45;three -->
        <g id="node2" class="node">
            <title>:project&#45;three</title>
            <polygon fill="#81d4fa" stroke="black"
                     points="190.68,-310 101.68,-310 101.68,-274 190.68,-274 190.68,-310"/>
            <text text-anchor="middle" x="146.18" y="-288.3" font-family="Times,serif" font-size="14.00">:project&#45;three</text>
        </g>
        <!-- :project&#45;three&#45;&gt;:project&#45;one -->
        <g id="edge2" class="edge">
            <title>:project&#45;three&#45;&gt;:project&#45;one</title>
            <path fill="none" stroke="black" stroke-dasharray="1,5"
                  d="M141.97,-273.94C136.58,-251.12 127.53,-209.31 124.18,-173 120.04,-128.25 130.57,-76.62 138.45,-45.95"/>
            <polygon fill="black" stroke="black" points="141.91,-46.59 141.1,-36.03 135.14,-44.79 141.91,-46.59"/>
        </g>
        <!-- :project&#45;two -->
        <g id="node3" class="node">
            <title>:project&#45;two</title>
            <ellipse fill="#ffc9ba" stroke="black" cx="187.18" cy="-155" rx="53.89" ry="18"/>
            <text text-anchor="middle" x="187.18" y="-151.3" font-family="Times,serif" font-size="14.00">:project&#45;two</text>
        </g>
        <!-- :project&#45;three&#45;&gt;:project&#45;two -->
        <g id="edge3" class="edge">
            <title>:project&#45;three&#45;&gt;:project&#45;two</title>
            <path fill="none" stroke="black" stroke-dasharray="1,5"
                  d="M151.37,-273.9C158.36,-250.88 170.88,-209.67 179.1,-182.58"/>
            <polygon fill="black" stroke="black" points="182.47,-183.54 182.02,-172.96 175.77,-181.51 182.47,-183.54"/>
        </g>
        <!-- :project&#45;two&#45;&gt;:project&#45;one -->
        <g id="edge1" class="edge">
            <title>:project&#45;two&#45;&gt;:project&#45;one</title>
            <path fill="none" stroke="black" stroke-dasharray="1,5"
                  d="M181.98,-136.9C174.99,-113.88 162.47,-72.67 154.25,-45.58"/>
            <polygon fill="black" stroke="black" points="157.58,-44.51 151.33,-35.96 150.88,-46.54 157.58,-44.51"/>
        </g>
    </g>
</svg>
